<?xml version="1.0" encoding="UTF-8"?>
<svg width="16px" height="16px" viewBox="0 0 16 16" version="1.1" xmlns="http://www.w3.org/2000/svg" xmlns:xlink="http://www.w3.org/1999/xlink">
    <title>search</title>
    <g id="desktop" stroke="none" stroke-width="1" fill="none" fill-rule="evenodd">
        <g id="profile" transform="translate(-1377.000000, -53.000000)" fill="#333333" fill-rule="nonzero">
            <g id="header" transform="translate(290.000000, 32.000000)">
                <g id="search" transform="translate(1070.000000, 8.000000)">
                    <g transform="translate(17.000000, 13.000000)" id="Shape">
                        <path d="M12.0674699,11.4313253 C13.1277108,10.2361446 13.7638554,8.65542169 13.7638554,6.93975904 C13.7638554,3.16144578 10.6987952,0.0963855422 6.92048193,0.0963855422 C3.14216867,0.0963855422 0.0771084337,3.16144578 0.0771084337,6.93975904 C0.0771084337,10.7180723 3.14216867,13.7831325 6.92048193,13.7831325 C8.55903614,13.7831325 10.0626506,13.2048193 11.2385542,12.2409639 L14.8240964,15.826506 C14.939759,15.9421687 15.0939759,16 15.2289157,16 C15.3638554,16 15.5180723,15.9421687 15.6337349,15.826506 C15.8650602,15.5951807 15.8650602,15.2289157 15.6337349,15.0168675 L12.0674699,11.4313253 Z M1.23373494,6.93975904 C1.23373494,3.79759036 3.77831325,1.25301205 6.92048193,1.25301205 C10.0626506,1.25301205 12.6072289,3.79759036 12.6072289,6.93975904 C12.6072289,10.0819277 10.0433735,12.626506 6.92048193,12.626506 C3.79759036,12.626506 1.23373494,10.0819277 1.23373494,6.93975904 Z"></path>
                    </g>
                </g>
            </g>
        </g>
    </g>
</svg>